<svg width="400" height="400">

<svg version="1.1" id="Layer_1" xmlns="http://www.w3.org/2000/svg" xmlns:xlink="http://www.w3.org/1999/xlink" x="0px" y="0px"
	 viewBox="0 0 151.9 168.2" style="enable-background:new 0 0 151.9 168.2;" xml:space="preserve">
<style type="text/css">
	.st1{fill:none;stroke:#000000;stroke-width:6;stroke-miterlimit:10;}
</style>

    
    
<g>
	<path class="st1" d="M3,84.5v-0.4C3,39.5,36.6,3,84.8,3c29.6,0,47.3,9.9,61.8,24.2l-22,25.3c-12.1-11-24.4-17.7-40.1-17.7
		c-26.4,0-45.5,22-45.5,48.8v0.4c0,26.9,18.6,49.3,45.5,49.3c17.9,0,28.9-7.2,41.2-18.4l22,22.2c-16.1,17.2-34,28-64.3,28
		C37.3,165.2,3,129.6,3,84.5z"/>
</g>
</svg>
